#!OML:ASF H:\LiuWeirdWalks\Patient Classification 1\Patient 1\Session 1\male.ASF
:FULLY-SPECIFIED
:DEGREES
856
root -0.387029 18.185 -2.81511 3.9348 4.04979 2.03825
lowerback 10.0363 -0.804756 3.0811
upperback 1.19943 -0.478911 5.17622
thorax -4.36537 -0.246121 3.74397
lowerneck -27.195 2.42771 6.85218
upperneck 28.3549 6.15468 -16.2147
head 15.3811 1.03854 -6.83025
rclavicle 4.37326e-015 -6.52014e-014
rhumerus -27.1412 -44.0207 -21.3463
rradius 27.7157
rwrist 8.40064
rhand -25.5485 2.06026
rfingers 7.12502
rthumb 0.981801 -27.9172
lclavicle 4.37326e-015 -6.52014e-014
lhumerus -21.8224 30.3654 28.0574
lradius 39.7425
lwrist 8.01926
lhand -22.1407 -3.28202
lfingers 7.12502
lthumb 4.27288 26.6549
rfemur -8.772 -0.622184 18.2707
rtibia 28.0265
rfoot -14.5619 -20.4268
rtoes -3.68962
lfemur -11.8265 1.34741 -11.2141
ltibia 44.9576
lfoot -6.54439 8.40264
ltoes -18.2458
857
root -0.397496 18.1806 -2.76053 3.97263 4.20169 1.8702
lowerback 10.0656 -0.851946 3.0798
upperback 1.2254 -0.546791 5.06159
thorax -4.35249 -0.280608 3.63273
lowerneck -27.2009 2.4261 6.86065
upperneck 28.334 6.07669 -16.0242
head 15.3465 1.03207 -6.75824
rclavicle 1.35174e-014 -4.29375e-014
rhumerus -27.2583 -43.8933 -20.41
rradius 27.8821
rwrist 8.05951
rhand -25.6156 1.90392
rfingers 7.12502
rthumb 0.916988 -28.0739
lclavicle 1.35174e-014 -4.29375e-014
lhumerus -21.982 30.3522 28.1438
lradius 39.7168
lwrist 8.01635
lhand -22.1484 -3.22799
lfingers 7.12502
lthumb 4.26544 26.709
rfemur -8.50914 -0.630333 18.5418
rtibia 27.8436
rfoot -14.6549 -20.6407
rtoes -3.6485
lfemur -12.5094 1.62808 -11.099
ltibia 44.5996
lfoot -6.96072 8.73105
ltoes -18.4534
858
root -0.408099 18.1759 -2.70611 4.00591 4.35337 1.69788
lowerback 10.1006 -0.899965 3.06972
upperback 1.25584 -0.616899 4.94117
thorax -4.33827 -0.316072 3.52083
lowerneck -27.2032 2.43928 6.8963
upperneck 28.297 6.01017 -15.8444
head 15.3074 1.0326 -6.6925
rclavicle 1.27222e-014 3.81667e-014
rhumerus -27.3628 -43.803 -19.4917
rradius 28.0338
rwrist 7.7438
rhand -25.6722 1.75385
rfingers 7.12502
rthumb 0.862299 -28.2241
lclavicle 1.27222e-014 3.81667e-014
lhumerus -22.143 30.347 28.2214
lradius 39.6915
lwrist 7.99732
lhand -22.1471 -3.19814
lfingers 7.12502
lthumb 4.26675 26.7389
rfemur -8.24967 -0.665156 18.8165
rtibia 27.6694
rfoot -14.7441 -20.8296
rtoes -3.62558
lfemur -13.1931 1.9151 -10.9861
ltibia 44.1957
lfoot -7.35569 9.00997
ltoes -18.631
859
root -0.418435 18.1709 -2.65111 4.02519 4.49814 1.52834
lowerback 10.1413 -0.948232 3.04797
upperback 1.3011 -0.689488 4.81285
thorax -4.31187 -0.3526 3.40747
lowerneck -27.2163 2.46291 6.95024
upperneck 28.2522 5.94935 -15.6644
head 15.269 1.03746 -6.6287
rclavicle -7.95139e-016 -1.74931e-014
rhumerus -27.4453 -43.7564 -18.6051
rradius 28.1764
rwrist 7.43206
rhand -25.7378 1.59118
rfingers 7.12502
rthumb 0.798941 -28.3871
lclavicle -7.95139e-016 -1.74931e-014
lhumerus -22.2866 30.3757 28.2947
lradius 39.6552
lwrist 7.96172
lhand -22.1435 -3.18615
lfingers 7.12502
lthumb 4.27016 26.7508
rfemur -7.97954 -0.731579 19.0828
rtibia 27.5017
rfoot -14.8306 -20.9786
rtoes -3.62395
lfemur -13.8572 2.20181 -10.886
ltibia 43.7439
lfoot -7.73782 9.24997
ltoes -18.717
860
root -0.428875 18.1656 -2.59617 4.0391 4.63352 1.34877
lowerback 10.1797 -0.995102 3.02411
upperback 1.3603 -0.76156 4.68025
thorax -4.26991 -0.388822 3.29048
lowerneck -27.2368 2.50257 7.02287
upperneck 28.1597 5.89991 -15.4918
head 15.2135 1.04854 -6.5656
rclavicle -1.94809e-014 1.90833e-014
rhumerus -27.5234 -43.7881 -17.723
rradius 28.2884
rwrist 7.24643
rhand -25.751 1.47776
rfingers 7.12502
rthumb 0.786244 -28.5005
lclavicle -1.94809e-014 1.90833e-014
lhumerus -22.4153 30.4337 28.364
lradius 39.6196
lwrist 7.93158
lhand -22.1192 -3.17079
lfingers 7.12502
lthumb 4.29365 26.7657
rfemur -7.71192 -0.826768 19.3554
rtibia 27.3389
rfoot -14.9021 -21.0852
rtoes -3.6494
lfemur -14.5121 2.495 -10.7832
ltibia 43.2414
lfoot -8.10263 9.44495
ltoes -18.7417
861
root -0.439038 18.161 -2.54043 4.04874 4.76817 1.16759
lowerback 10.218 -1.04443 2.99026
upperback 1.42585 -0.838423 4.54423
thorax -4.2213 -0.427226 3.1762
lowerneck -27.2792 2.56091 7.12439
upperneck 28.0631 5.86744 -15.3295
head 15.1656 1.06807 -6.50958
rclavicle 1.23246e-014 3.18055e-015
rhumerus -27.5833 -43.8608 -16.8684
rradius 28.3862
rwrist 7.11022
rhand -25.7351 1.39645
rfingers 7.12502
rthumb 0.80161 -28.5818
lclavicle 1.23246e-014 3.18055e-015
lhumerus -22.5438 30.488 28.4275
lradius 39.5903
lwrist 7.8987
lhand -22.0746 -3.18101
lfingers 7.12502
lthumb 4.33676 26.7546
rfemur -7.44016 -0.967354 19.6218
rtibia 27.1762
rfoot -14.9617 -21.144
rtoes -3.70337
lfemur -15.1562 2.78158 -10.689
ltibia 42.6862
lfoot -8.44541 9.59522
ltoes -18.7406
862
root -0.449001 18.157 -2.48399 4.05384 4.89102 0.988926
lowerback 10.2544 -1.09176 2.93878
upperback 1.49481 -0.915069 4.40253
thorax -4.16822 -0.465258 3.06586
lowerneck -27.304 2.62011 7.22844
upperneck 27.9721 5.83204 -15.1541
head 15.1155 1.08892 -6.44907
rclavicle 9.14409e-015 -7.15625e-014
rhumerus -27.6281 -43.9166 -16.0597
rradius 28.483
rwrist 6.97285
rhand -25.7259 1.27079
rfingers 7.12502
rthumb 0.810487 -28.7074
lclavicle 9.14409e-015 -7.15625e-014
lhumerus -22.6598 30.5599 28.4846
lradius 39.5508
lwrist 7.85652
lhand -22.0392 -3.18754
lfingers 7.12502
lthumb 4.37088 26.7474
rfemur -7.16441 -1.13745 19.8781
rtibia 27.0084
rfoot -15.0029 -21.1634
rtoes -3.7913
lfemur -15.7828 3.06264 -10.6083
ltibia 42.0771
lfoot -8.76067 9.71569
ltoes -18.6813
